# xmcd
#
# Track frame offsets:
#	150
#	14048
#	29751
#	42832
#	57178
#	69152
#	82179
#	96172
#	109068
#	123530
#	137897
#	150888
#	162290
#	179010
#	193973
#	207161
#
# Disc length: 2940 seconds
#
# Revision: 0
# Processed by: cddbd v1.5.2PL0 Copyright (c) Steve Scherf et al.
# Submitted via: EasyCDDAExtractor 16.0.6.1
#
DISCID=e60b7a10
DTITLE=Ξανθόπουλος Νίκος - Μεγάλες κινηματογραφικές επιτυχίες-Ν. Ξανθόπουλος
DYEAR=1994
DGENRE=Λαϊκή
TTITLE0=Πετραδάκι, πετραδάκι [Απ. Καλδάρα-Ευτ. Παπαγιαννοπούλου]
TTITLE1=Αφού αμαρτήσανε τα δυό σου χείλη [Απ.Καλδάρα-Ευτ.Παπαγιαννοπούλου]
TTITLE2=Στ' Αποστόλη το κουτούκι [Απ. Καλδάρα-Ευτ. Παπαγιαννοπούλου]
TTITLE3=Ποιος θα με πληροφορήσει [Απ. Καλδάρα-Ευτ. Παπαγιαννοπούλου]
TTITLE4=Βρήκα αγάπη μου εσένα [Απ. Καλδάρα-Ευτ. Παπαγιαννοπούλου]
TTITLE5=Μην κάνεις όνειρα τρελλά [Απ. Καλδάρα]
TTITLE6=Πατέρα μου με γέλασες [Απ. Καλδάρα]
TTITLE7=Όταν θυμάμαι εκείνη [Απ. Καλδάρα-Χήστου Αργυρόπουλου]
TTITLE8=Πλάϊ μου στάσου στη ζωή [Απ. Καλδάρα-Ευτ. Παπαγιαννοπούλου]
TTITLE9=Ρίξτε στο γυαλί φαρμάκι [Απ. Καλδάρα-Ευτ. Παπαγιαννοπούλου]
TTITLE10=Δεν σού χρωστάω τίποτα [Στ. Ξαρχάκου-Λευτ. Παπαδόπουλου]
TTITLE11=Της μοίρας είμαι απόπαιδο [Γιώργου Μανισαλή-Θαν. Παπουτσή]
TTITLE12=Δικαίωμά μου είναι να σ' αγαπώ [Απ. Καλδάρα]
TTITLE13=Παιδί μου, παιδί μου [Γιώργου Μανισαλή-Κώστα Ψυχογιού]
TTITLE14=Μη μαδάς τις μαργαρίτες [Γιώργου Μανισαλή-Κώστα Ψυχογιού]
TTITLE15=Αν ξαναγύριζες [Γιώργου Μανισαλή-Κώστα Ψυχογιού]
EXTD=
EXTT0=
EXTT1=
EXTT2=
EXTT3=
EXTT4=
EXTT5=
EXTT6=
EXTT7=
EXTT8=
EXTT9=
EXTT10=
EXTT11=
EXTT12=
EXTT13=
EXTT14=
EXTT15=
PLAYORDER=
